# xmcd CD database file
#
# Track frame offsets:
#	150
#	18925
#	35835
#	49547
#	70530
#	85535
#	101795
#	117200
#	136592
#	153655
#	167210
#	181335
#
# Disc length: 2696 seconds
#
# Revision: 0
# Processed by: cddbd v1.5PL3 Copyright (c) Steve Scherf et al.
# Submitted via: CDex 1.51
#
DISCID=910a860c
DTITLE=中島みゆき - 中島みゆき作品集
DYEAR=1982
DGENRE=Other
TTITLE0=遍路
TTITLE1=夜曲
TTITLE2=悪女
TTITLE3=根雪
TTITLE4=ひとり上手
TTITLE5=歌姫
TTITLE6=ホームにて
TTITLE7=時代
TTITLE8=わかれうた
TTITLE9=きつね狩りの歌
TTITLE10=ひとり
TTITLE11=捨てるほどの愛でいいから
EXTD=YEAR: 1982
EXTT0=
EXTT1=
EXTT2=
EXTT3=
EXTT4=
EXTT5=
EXTT6=
EXTT7=
EXTT8=
EXTT9=
EXTT10=
EXTT11=
PLAYORDER=
